<svg width="48" height="48" viewBox="0 0 48 48" fill="none" xmlns="http://www.w3.org/2000/svg">
<rect x="11.1353" y="5.71191" width="25.7295" height="39.4235" fill="white"/>
<rect x="3.71191" y="16.7676" width="40.5765" height="14.768" fill="white"/>
<rect x="7.42334" y="31.5361" width="33.153" height="7.39191" fill="white"/>
<rect x="7.42334" y="9.37598" width="33.153" height="7.39191" fill="white"/>
<rect x="7.42334" y="5.71191" width="3.71175" height="3.66436" fill="black"/>
<rect x="3.71191" y="9.37598" width="3.71175" height="7.39191" fill="black"/>
<rect y="16.7676" width="3.71175" height="14.768" fill="black"/>
<rect x="3.71191" y="31.5361" width="3.71175" height="7.43929" fill="black"/>
<rect x="11.1353" y="46.3516" width="3.71175" height="25.7295" transform="rotate(-90 11.1353 46.3516)" fill="black"/>
<rect x="40.5767" y="42.6396" width="3.71175" height="3.66436" transform="rotate(180 40.5767 42.6396)" fill="black"/>
<rect x="44.2881" y="38.9756" width="3.71175" height="7.43929" transform="rotate(180 44.2881 38.9756)" fill="black"/>
<rect x="48" y="31.5361" width="3.71175" height="14.768" transform="rotate(180 48 31.5361)" fill="black"/>
<rect x="44.2881" y="16.7676" width="3.71175" height="7.39191" transform="rotate(180 44.2881 16.7676)" fill="black"/>
<rect x="36.8647" y="2" width="3.71175" height="25.7295" transform="rotate(90 36.8647 2)" fill="black"/>
<rect x="22.144" y="16.7676" width="3.71175" height="11.0089" transform="rotate(90 22.144 16.7676)" fill="black"/>
<rect x="22.144" y="31.5361" width="3.71175" height="11.0089" transform="rotate(90 22.144 31.5361)" fill="black"/>
<rect x="36.8647" y="27.8721" width="3.71175" height="3.64857" transform="rotate(90 36.8647 27.8721)" fill="black"/>
<rect x="36.8647" y="20.4326" width="3.71175" height="3.64857" transform="rotate(90 36.8647 20.4326)" fill="black"/>
<rect x="7.42334" y="20.4795" width="3.71175" height="11.0563" fill="black"/>
<rect x="22.144" y="20.4795" width="3.71175" height="11.0563" fill="black"/>
<rect x="29.5044" y="24.1445" width="3.71175" height="3.72754" fill="black"/>
<rect x="36.8647" y="24.1445" width="3.71175" height="3.72754" fill="black"/>
<rect x="40.5767" y="9.37598" width="3.71175" height="3.66436" transform="rotate(180 40.5767 9.37598)" fill="black"/>
<rect x="7.42334" y="38.9756" width="3.71175" height="3.66436" fill="black"/>
</svg>
